<svg width="55" height="57" viewBox="0 0 55 57" fill="none" xmlns="http://www.w3.org/2000/svg">
<path d="M35.1913 56.0479H20.0013C6.25432 56.0479 0.380859 49.9999 0.380859 35.8446V20.2033C0.380859 6.04796 6.25432 0 20.0013 0H35.1913C48.9382 0 54.8117 6.04796 54.8117 20.2033V35.8446C54.8117 49.9999 48.9382 56.0479 35.1913 56.0479ZM20.0013 3.91032C8.33029 3.91032 4.17836 8.1856 4.17836 20.2033V35.8446C4.17836 47.8623 8.33029 52.1376 20.0013 52.1376H35.1913C46.8622 52.1376 51.0142 47.8623 51.0142 35.8446V20.2033C51.0142 8.1856 46.8622 3.91032 35.1913 3.91032H20.0013Z" fill="#CBB26A"/>
<path d="M23.9995 37.3568C23.4932 37.3568 23.0122 37.1482 22.6578 36.7833L15.493 29.4058C14.7588 28.6498 14.7588 27.3985 15.493 26.6425C16.2272 25.8865 17.4424 25.8865 18.1766 26.6425L23.9995 32.6383L37.0123 19.239C37.7465 18.483 38.9617 18.483 39.6959 19.239C40.43 19.995 40.43 21.2463 39.6959 22.0023L25.3413 36.7833C24.9869 37.1482 24.5059 37.3568 23.9995 37.3568Z" fill="#CBB26A"/>
</svg>
