<svg width="173" height="34" viewBox="0 0 173 34" fill="none" xmlns="http://www.w3.org/2000/svg">
<g filter="url(#filter0_d_1552_1319)">
<path d="M18.5 20.8958L27.461 26L25.083 16.38L33 9.90737L22.5745 9.07263L18.5 0L14.4255 9.07263L4 9.90737L11.917 16.38L9.539 26L18.5 20.8958Z" fill="#E4A935"/>
<path d="M120.5 20.8958L129.461 26L127.083 16.38L135 9.90737L124.575 9.07263L120.5 0L116.425 9.07263L106 9.90737L113.917 16.38L111.539 26L120.5 20.8958Z" fill="#E4A935"/>
<path d="M154.5 20.8958L163.461 26L161.083 16.38L169 9.90737L158.575 9.07263L154.5 0L150.425 9.07263L140 9.90737L147.917 16.38L145.539 26L154.5 20.8958Z" fill="#B7B5B5"/>
<path d="M86.5 20.8958L95.461 26L93.083 16.38L101 9.90737L90.5745 9.07263L86.5 0L82.4255 9.07263L72 9.90737L79.917 16.38L77.539 26L86.5 20.8958Z" fill="#E4A935"/>
<path d="M52.5 20.8958L61.461 26L59.083 16.38L67 9.90737L56.5745 9.07263L52.5 0L48.4255 9.07263L38 9.90737L45.917 16.38L43.539 26L52.5 20.8958Z" fill="#E4A935"/>
</g>
<defs>
<filter id="filter0_d_1552_1319" x="0" y="0" width="173" height="34" filterUnits="userSpaceOnUse" color-interpolation-filters="sRGB">
<feFlood flood-opacity="0" result="BackgroundImageFix"/>
<feColorMatrix in="SourceAlpha" type="matrix" values="0 0 0 0 0 0 0 0 0 0 0 0 0 0 0 0 0 0 127 0" result="hardAlpha"/>
<feOffset dy="4"/>
<feGaussianBlur stdDeviation="2"/>
<feComposite in2="hardAlpha" operator="out"/>
<feColorMatrix type="matrix" values="0 0 0 0 0 0 0 0 0 0 0 0 0 0 0 0 0 0 0.25 0"/>
<feBlend mode="normal" in2="BackgroundImageFix" result="effect1_dropShadow_1552_1319"/>
<feBlend mode="normal" in="SourceGraphic" in2="effect1_dropShadow_1552_1319" result="shape"/>
</filter>
</defs>
</svg>
