<svg width="46" height="46" viewBox="0 0 46 46" fill="none" xmlns="http://www.w3.org/2000/svg">
<path d="M23.735 45.75C22.7498 45.75 21.5675 45.3006 20.7793 44.4017C7.97143 31.5927 7.77438 31.368 7.77438 31.1433L7.57733 30.9185C5.2128 28.2219 3.8335 24.4017 3.8335 20.5815V20.132C4.03054 12.0421 9.74482 5.75 16.8384 5.75C19.0059 5.75 21.9616 7.09831 23.735 9.79494C25.5084 7.09831 28.6611 5.75 30.8286 5.75C37.9222 5.75 43.4394 12.0421 43.8335 20.132V20.5815C43.8335 24.6264 42.4542 28.2219 40.0897 31.1433L39.8926 31.368C39.6956 31.5927 38.1192 33.1657 26.8877 44.6264C25.9025 45.3006 24.9172 45.75 23.735 45.75ZM10.73 30.4691C11.5182 31.368 15.4591 34.514 22.7498 41.7051C23.3409 42.3792 24.1291 42.3792 24.7202 41.7051C32.2079 34.0646 36.5429 29.7949 37.5281 28.8961L37.7251 28.6714C39.6956 26.4242 40.6808 23.5028 40.6808 20.5815V20.132C40.4837 13.8399 36.1488 9.12079 30.6315 9.12079C29.2522 9.12079 26.4936 10.2444 25.5084 12.7163C25.1143 13.6152 24.3261 14.0646 23.5379 14.0646C22.7498 14.0646 21.9616 13.6152 21.5675 12.7163C20.5823 10.4691 18.0207 9.12079 16.4443 9.12079C11.1241 9.12079 6.59212 14.0646 6.39507 20.132V20.8062C6.39507 23.7275 7.57734 26.6489 9.35074 28.6714L10.73 30.4691Z" fill="black"/>
</svg>
