<svg width="50" height="50" viewBox="0 0 50 50" fill="none" xmlns="http://www.w3.org/2000/svg">
<path d="M22.9165 43.75V18.75H7.44775C6.92692 18.75 6.59706 18.5069 6.45817 18.0208C6.31928 17.5347 6.45817 17.1528 6.87484 16.875L23.8019 4.99999C24.1839 4.72222 24.5832 4.58333 24.9998 4.58333C25.4165 4.58333 25.8158 4.72222 26.1978 4.99999L43.1248 16.875C43.5415 17.1528 43.6804 17.5347 43.5415 18.0208C43.4026 18.5069 43.0728 18.75 42.5519 18.75H27.0832V43.75C27.0832 44.3403 26.8832 44.8354 26.4832 45.2354C26.0832 45.6354 25.5887 45.8347 24.9998 45.8333C24.4096 45.8333 23.9144 45.6333 23.5144 45.2333C23.1144 44.8333 22.9151 44.3389 22.9165 43.75ZM24.9998 14.5833H32.604H17.3957H24.9998ZM6.24984 43.75V34.8958L4.94775 27.7604C4.84359 27.1701 4.94775 26.6493 5.26025 26.1979C5.57275 25.7465 6.02414 25.4687 6.61442 25.3646C7.16998 25.2604 7.68248 25.3736 8.15192 25.7042C8.62137 26.0347 8.90748 26.4771 9.01025 27.0312L10.2082 33.3333H16.6665C17.2568 33.3333 17.7519 33.5333 18.1519 33.9333C18.5519 34.3333 18.7512 34.8278 18.7498 35.4167V43.75C18.7498 44.3403 18.5498 44.8354 18.1498 45.2354C17.7498 45.6354 17.2554 45.8347 16.6665 45.8333C16.0762 45.8333 15.5811 45.6333 15.1811 45.2333C14.7811 44.8333 14.5818 44.3389 14.5832 43.75V37.5H10.4165V43.75C10.4165 44.3403 10.2165 44.8354 9.8165 45.2354C9.4165 45.6354 8.92206 45.8347 8.33317 45.8333C7.74289 45.8333 7.24775 45.6333 6.84775 45.2333C6.44775 44.8333 6.24845 44.3389 6.24984 43.75ZM31.2498 43.75V35.4167C31.2498 34.8264 31.4498 34.3312 31.8498 33.9312C32.2498 33.5312 32.7443 33.3319 33.3332 33.3333H39.7915L40.9894 27.0312C41.0936 26.4757 41.3714 26.0326 41.8228 25.7021C42.2741 25.3715 42.795 25.259 43.3853 25.3646C43.9755 25.4687 44.4269 25.7465 44.7394 26.1979C45.0519 26.6493 45.1561 27.1701 45.0519 27.7604L43.7498 34.8958V43.75C43.7498 44.3403 43.5498 44.8354 43.1498 45.2354C42.7498 45.6354 42.2554 45.8347 41.6665 45.8333C41.0762 45.8333 40.5811 45.6333 40.1811 45.2333C39.7811 44.8333 39.5818 44.3389 39.5832 43.75V37.5H35.4165V43.75C35.4165 44.3403 35.2165 44.8354 34.8165 45.2354C34.4165 45.6354 33.9221 45.8347 33.3332 45.8333C32.7429 45.8333 32.2478 45.6333 31.8478 45.2333C31.4478 44.8333 31.2484 44.3389 31.2498 43.75ZM17.3957 14.5833H32.604L24.9998 9.27083L17.3957 14.5833Z" fill="#111111"/>
</svg>
